<svg width="25" height="25" fill="none" xmlns="http://www.w3.org/2000/svg"><g clip-path="url(#clip0)"><path d="M25 4.167H0v16.666h25V4.167z" fill="#F0F0F0"/><path d="M14.063 4.167h-3.126v6.77H0v3.126h10.938v6.771h3.124v-6.771H25v-3.125H14.062V4.166z" fill="#D80027"/><path d="M19.228 15.398L25 18.605v-3.207h-5.772zm-4.011 0L25 20.833v-1.537l-7.016-3.898h-2.767zm7.177 5.435l-7.177-3.987v3.987h7.177z" fill="#0052B4"/><path d="M15.217 15.398L25 20.833v-1.537l-7.016-3.898h-2.767z" fill="#F0F0F0"/><path d="M15.217 15.398L25 20.833v-1.537l-7.016-3.898h-2.767z" fill="#D80027"/><path d="M4.411 15.398L0 17.848v-2.45h4.411zm5.372.692v4.743H1.245l8.538-4.744z" fill="#0052B4"/><path d="M7.016 15.398L0 19.296v1.537l9.783-5.435H7.016z" fill="#D80027"/><path d="M5.772 9.601L0 6.395V9.6h5.772zm4.011 0L0 4.166v1.537l7.016 3.898h2.767zM2.606 4.167l7.177 3.987V4.167H2.606z" fill="#0052B4"/><path d="M9.783 9.601L0 4.166v1.537l7.016 3.898h2.767z" fill="#F0F0F0"/><path d="M9.783 9.601L0 4.166v1.537l7.016 3.898h2.767z" fill="#D80027"/><path d="M20.589 9.601L25 7.151V9.6h-4.411zm-5.372-.691V4.166h8.538L15.217 8.91z" fill="#0052B4"/><path d="M17.984 9.601L25 5.703V4.166l-9.783 5.435h2.767z" fill="#D80027"/></g><defs><clipPath id="clip0"><path fill="#fff" d="M0 0h25v25H0z"/></clipPath></defs></svg>